<svg width="200" height="118" fill="none" xmlns="http://www.w3.org/2000/svg"><path d="m16.699 88.998.433 1.135a3.873 3.873 0 0 0 3.366 2.484l1.212.08-1.135.433a3.874 3.874 0 0 0-2.484 3.366l-.08 1.212-.433-1.135a3.874 3.874 0 0 0-3.365-2.484L13 94.009l1.135-.433a3.873 3.873 0 0 0 2.484-3.365l.08-1.213Z" fill="#323335"/><path d="m140.087 94.626.364-25.12 5.798-9.504-1.179 32.801-4.983 1.823ZM96.736 106.137l-.109-26.069 11.205-5.08 9.747 5.08v22.556M60.557 71.11l-6.028-5.663.486 32.182 6.04 1.944-.498-28.462Z" fill="#E9F2FF"/><path d="M81.448 106.171c-13.514-4.387-26.42-8.543-26.42-8.543l-.596-40.154 37.261-12.165 54.993 6.878-38.866 14.888v38.318M60.97 56.988l30.833-9.99M54.42 57.463l53.388 9.613" stroke="#323335" stroke-width=".603" stroke-miterlimit="10" stroke-linecap="round" stroke-linejoin="round"/><path d="m145.07 92.803 1.617-40.627 27.854-26.348-59.392-4.63-23.467 24.099" stroke="#323335" stroke-width=".603" stroke-miterlimit="10" stroke-linecap="round" stroke-linejoin="round"/><path d="m174.54 25.828 2.698 7.207-26.627 27.648-3.925-8.507" stroke="#323335" stroke-width=".603" stroke-miterlimit="10" stroke-linecap="round" stroke-linejoin="round"/><path d="m150.611 60.682-4.362-.68-5.798 9.504-.364 25.12M116.133 23.566l1.446 4.29 47.677 4.011M102.449 44.228l15.131-16.37M61.056 91.504l-.499-20.393-6.028-5.664M96.736 106.135l-.109-26.069 11.205-5.08 9.747 5.08v22.556M91.816 62.262V46.998l48.551 5.943-32.752 12.092-46.656-8.045M28.521 100.082C26.42 92.171 36.3 82.011 53.374 72.641" stroke="#323335" stroke-width=".603" stroke-miterlimit="10" stroke-linecap="round" stroke-linejoin="round"/><path d="M165.718 48.457c9.844 1.64 16.285 5.129 17.683 10.355 3.621 13.575-28.123 33.822-70.889 45.221-31.83 8.483-60.802 9.674-75.034 4.132" stroke="#323335" stroke-width=".603" stroke-miterlimit="10" stroke-linecap="round" stroke-linejoin="round"/><path d="M157.977 56.977c15.847 3.293 26.056 9.03 26.688 16.297.486 5.627-4.861 11.326-14.28 16.382M161.476 93.74c-13.951 5.566-33.129 9.893-54.494 11.728-44.104 3.779-80.818-4.497-82.021-18.497-.39-4.472 2.904-8.981 8.98-13.174M20.616 69.318l4.858 1.063M18.587 61.605l10.128 7.092" stroke="#323335" stroke-width=".603" stroke-miterlimit="10" stroke-linecap="round" stroke-linejoin="round"/><path d="m33.626 102.527-3.306-.207-1.847 2.771 1.482 2.978 3.318.206 1.835-2.771-1.482-2.977Z" stroke="#323335" stroke-width=".603" stroke-miterlimit="10"/><path d="m44.94 64.463-3.378-.219-1.872 2.832 1.495 3.026 3.39.206 1.872-2.819-1.507-3.026Z" fill="#323335"/><path d="m167.651 89.474-3.379-.206-1.872 2.82 1.507 3.025 3.379.219 1.872-2.82-1.507-3.038Z" fill="#2A55E5"/><path d="m179.986 50.267-2.541-.158-1.397 2.115 1.13 2.273 2.528.158 1.41-2.115-1.13-2.273Z" fill="#67EADF"/><path d="M63.085 26.07s.352-.22.972-.523" stroke="#323335" stroke-width=".603" stroke-miterlimit="10"/><path d="M66.087 24.672c3.73-1.361 10.16-2.455 14.742 3.44 6.818 8.762-6.794 14.546-9.431 7.109-2.637-7.438 16.212-9.322 23.419 2.467 6.149 10.05 4.411 16.103 2.807 18.85" stroke="#323335" stroke-width=".603" stroke-miterlimit="10" stroke-dasharray="2.22 2.22"/><path d="M97.004 57.46c-.425.547-.741.815-.741.815" stroke="#323335" stroke-width=".603" stroke-miterlimit="10"/><path d="M121.65 51.58a9.393 9.393 0 0 1-9.394 9.394 9.393 9.393 0 0 1-9.395-9.394 9.393 9.393 0 0 1 9.395-9.395 9.393 9.393 0 0 1 9.394 9.395Z" stroke="#323335" stroke-width=".603" stroke-miterlimit="10" stroke-dasharray="2.27 2.27"/><path d="M104.671 57.11c-.291.254-.571.485-.838.716" stroke="#323335" stroke-width=".603" stroke-miterlimit="10"/><path d="M102.181 59.334c-2.455 2.309-3.075 3.414-2.601 4.083.948 1.337 8.167-1.81 17.962-8.787 9.796-6.976 16.978-13.708 16.03-15.033-.693-.972-5.542 1.215-11.922 5.177" stroke="#323335" stroke-width=".603" stroke-miterlimit="10" stroke-dasharray="2.23 2.23"/><path d="M120.713 45.357c-.303.195-.619.39-.923.596" stroke="#323335" stroke-width=".603" stroke-miterlimit="10"/><path d="M62.064 27.48s-1.932-2.358-5.59-1.543c-4.4.984-4.643 6.27-4.643 6.27s.304-.862 1.264-.862 5.566.984 7.037-2.127c.875-1.835.875-1.835 1.932-1.738Z" fill="#2A55E5"/><path d="M61.056 94.336v4.594" stroke="#323335" stroke-width=".603" stroke-miterlimit="10" stroke-linecap="round" stroke-linejoin="round"/><path d="M89.385 77.31V92.77l-9.188 2.43V71.526l9.188 5.785ZM67.424 73.335v15.46l8.033 5.553V70.674l-8.033 2.661Z" fill="#67EADF"/><path d="M122.161 76.75v11.302l5.761 1.142V71.9l-5.761 4.85ZM137.073 71.949v11.302l-5.761 4.85V70.806l5.761 1.142Z" stroke="#323335" stroke-width=".603" stroke-miterlimit="10"/><path d="m95.97 43.62 20.053-20.356 54.507 3.95-24.318 22.385-50.241-5.979Z" stroke="#323335" stroke-width=".603" stroke-miterlimit="10" stroke-linecap="round" stroke-linejoin="round"/></svg>